<?xml version="1.0" standalone="no"?>
<!DOCTYPE svg PUBLIC "-//W3C//DTD SVG 20010904//EN"
 "http://www.w3.org/TR/2001/REC-SVG-20010904/DTD/svg10.dtd">
<svg version="1.0" xmlns="http://www.w3.org/2000/svg"
 width="3019.000000pt" height="3019.000000pt" viewBox="0 0 3019.000000 3019.000000"
 preserveAspectRatio="xMidYMid meet">
<metadata>
Created by potrace 1.14, written by Peter Selinger 2001-2017
</metadata>
<g transform="translate(0.000000,3019.000000) scale(0.100000,-0.100000)"
fill="#000000" stroke="none">
<path d="M4165 20988 c-19 -52 -128 -366 -200 -573 -47 -137 -95 -272 -105
-300 -11 -27 -38 -104 -61 -170 -22 -66 -56 -163 -75 -215 -18 -52 -64 -185
-103 -295 -38 -110 -99 -285 -136 -390 -37 -104 -97 -278 -135 -385 -37 -107
-100 -287 -140 -400 -39 -113 -105 -302 -147 -420 -41 -118 -103 -296 -138
-395 -58 -168 -162 -466 -257 -735 -54 -156 -157 -449 -228 -650 -32 -91 -99
-284 -150 -430 -50 -146 -102 -294 -116 -330 -13 -36 -24 -70 -24 -75 0 -7
614 -10 1837 -10 l1837 0 1 2880 c0 1584 -1 2886 -3 2893 -3 9 -178 12 -828
12 -651 0 -826 -3 -829 -12z"/>
<path d="M6060 18107 l0 -2893 1838 1 c1187 0 1836 4 1835 10 -1 6 -15 48 -32
95 -16 47 -63 182 -104 300 -42 118 -89 253 -105 300 -37 103 -288 820 -382
1090 -37 107 -100 287 -140 400 -39 113 -150 428 -245 700 -95 272 -237 677
-315 900 -142 404 -238 680 -308 881 -20 58 -116 331 -212 607 l-175 502 -827
0 -828 0 0 -2893z"/>
<path d="M12674 18108 l1 -2893 1710 0 1710 0 2 2893 3 2892 -1714 0 -1713 0
1 -2892z"/>
<path d="M16339 20993 c-1 -4 -2 -1306 -3 -2893 l-1 -2885 1788 0 c983 0 1788
3 1790 6 4 10 -196 192 -332 302 -90 72 -283 203 -411 277 -89 52 -321 167
-402 200 -32 13 -58 27 -58 30 0 4 12 12 28 19 51 24 237 154 342 240 172 141
346 326 485 515 83 113 285 478 285 514 0 4 9 26 19 48 23 48 95 274 117 369
19 85 19 82 34 175 6 41 13 86 16 100 23 139 23 531 -1 660 -2 14 -6 45 -9 70
-3 25 -8 56 -11 70 -3 14 -7 37 -10 52 -4 22 -31 133 -49 203 -39 152 -137
389 -237 575 -32 57 -117 190 -168 260 -281 385 -658 690 -1088 879 -85 37
-308 117 -350 126 -10 1 -45 10 -78 18 -75 20 -213 46 -280 53 -27 3 -61 8
-75 11 -40 10 -1340 15 -1341 6z"/>
<path d="M21888 20993 c-3 -7 -2 -5700 1 -5758 1 -20 2 -20 1711 -20 l1710 -1
0 2893 0 2893 -1709 0 c-941 0 -1711 -3 -1713 -7z"/>
<path d="M25549 20988 c0 -17 0 -5761 0 -5768 1 -8 3581 -7 3581 1 0 6 -147
144 -225 211 -272 233 -619 444 -965 585 l-24 10 24 15 c31 19 217 141 250
165 14 10 75 59 135 109 357 297 639 706 795 1152 27 76 66 209 75 250 46 228
49 244 62 380 15 146 8 488 -12 602 -2 14 -11 68 -20 120 -48 280 -167 604
-310 845 -36 60 -65 110 -65 112 0 8 -136 191 -179 243 -25 30 -53 63 -61 73
-61 78 -272 276 -379 355 -42 31 -78 59 -81 62 -3 3 -50 35 -105 70 -190 122
-431 235 -655 305 -93 29 -330 82 -407 90 -26 3 -61 8 -78 11 -16 4 -328 8
-692 11 -545 4 -663 2 -664 -9z"/>
<path d="M2056 14962 c-17 -51 -60 -174 -106 -302 -28 -80 -53 -153 -55 -163
-2 -9 -7 -21 -10 -27 -3 -5 -40 -107 -81 -227 -42 -120 -107 -306 -144 -413
-37 -107 -89 -256 -115 -330 -25 -74 -50 -144 -55 -155 -4 -11 -14 -36 -20
-55 -12 -36 -124 -356 -256 -735 -38 -107 -40 -115 -44 -130 -1 -5 -8 -26 -17
-45 -8 -19 -25 -66 -38 -105 -12 -38 -44 -128 -69 -200 -26 -71 -48 -134 -50
-140 -2 -5 -5 -17 -8 -25 -3 -8 -16 -44 -28 -80 -12 -36 -25 -74 -30 -85 -4
-11 -26 -72 -48 -135 -22 -63 -74 -212 -115 -330 -41 -118 -110 -314 -152
-435 -42 -121 -87 -249 -100 -285 -13 -36 -63 -177 -110 -315 -98 -282 -130
-372 -210 -600 -64 -180 -155 -446 -155 -452 0 -2 665 -2 1477 -1 l1477 3 43
125 c24 69 54 157 67 195 13 39 40 115 59 170 89 253 175 499 249 710 168 483
229 657 298 855 40 113 79 226 88 253 13 39 20 47 41 48 14 0 467 1 1006 1
l980 0 -1 1692 c-1 930 -2 1701 -3 1713 l-1 22 -1879 0 c-1761 0 -1879 -1
-1885 -17z"/>
<path d="M6060 13266 l0 -1714 988 0 c543 0 994 -1 1004 -1 10 -1 22 -17 31
-43 8 -24 38 -108 66 -188 27 -80 60 -172 72 -205 12 -33 54 -154 94 -270 41
-115 104 -295 140 -400 37 -104 73 -208 80 -230 8 -22 26 -74 40 -115 36 -101
145 -409 155 -440 4 -14 41 -117 80 -230 40 -113 74 -213 77 -222 5 -17 84
-18 1483 -18 l1477 0 -38 108 c-20 59 -70 199 -109 312 -40 113 -99 282 -132
375 -33 94 -79 226 -103 295 -24 69 -75 215 -113 325 -127 363 -198 567 -291
835 -51 146 -99 281 -106 300 -8 19 -79 222 -159 450 -128 370 -297 850 -386
1105 -17 50 -50 142 -72 205 -22 63 -55 158 -73 210 -18 52 -66 187 -105 300
-39 113 -87 248 -105 300 -18 52 -76 217 -128 365 -52 149 -98 278 -102 287
-6 16 -127 17 -1886 17 l-1879 0 0 -1713z"/>
<path d="M12674 12084 l-1 -2894 1714 0 1713 0 0 2894 -1 2895 -1712 0 -1713
0 0 -2895z"/>
<path d="M16337 14972 c-2 -4 -3 -1305 -3 -2892 l1 -2885 640 0 c561 0 776 5
850 20 11 2 40 7 65 10 49 6 79 11 155 25 28 5 61 11 75 14 138 23 439 115
615 188 815 336 1475 956 1858 1748 82 170 181 435 225 605 42 162 44 168 66
290 5 28 24 153 30 195 28 202 29 717 2 870 -4 25 -14 97 -22 154 -2 15 -5 35
-8 45 -3 9 -8 36 -11 61 -14 96 -117 462 -154 545 -5 11 -21 52 -36 90 -122
307 -343 683 -534 907 -14 16 -140 17 -1912 17 -1044 0 -1900 -3 -1902 -7z"/>
<path d="M21888 14962 c-2 -9 -3 -1311 -3 -2892 l1 -2875 1712 -3 1712 -2 0
2894 0 2895 -1709 0 c-1600 0 -1709 -1 -1713 -17z"/>
<path d="M25549 14937 c0 -55 0 -5683 0 -5720 l1 -29 683 5 c375 2 691 6 702
9 11 3 54 9 95 14 41 4 77 8 80 9 3 1 30 5 60 9 46 6 113 20 300 61 121 26
415 126 565 193 124 55 408 205 460 244 6 4 48 33 95 64 233 155 490 380 663
578 29 33 60 67 69 77 69 73 256 338 347 493 85 144 223 430 247 511 2 6 23
67 48 138 44 123 118 405 131 497 4 24 8 47 10 50 2 3 6 34 10 70 3 35 8 67
10 70 1 3 6 43 10 90 4 47 9 99 11 115 2 17 4 120 5 230 1 180 -2 260 -17 391
-2 23 -6 59 -9 80 -26 247 -116 592 -225 864 -67 168 -240 509 -262 518 -4 2
-8 8 -8 13 0 19 -203 310 -263 376 l-19 22 -1899 0 -1899 0 -1 -42z"/>
</g>
</svg>
